nColumns=19
nRows=125
DataType=double
version=3
OpenSimVersion=4.1
endheader
time	ground_force_calcn_r_vx	ground_force_calcn_r_vy	ground_force_calcn_r_vz	ground_force_calcn_r_px	ground_force_calcn_r_py	ground_force_calcn_r_pz	ground_force_calcn_r_mx	ground_force_calcn_r_my	ground_force_calcn_r_mz	ground_force_calcn_l_vx	ground_force_calcn_l_vy	ground_force_calcn_l_vz	ground_force_calcn_l_px	ground_force_calcn_l_py	ground_force_calcn_l_pz	ground_force_calcn_l_mx	ground_force_calcn_l_my	ground_force_calcn_l_mz
1.95833	0	0	0	0	0	0	0	0	0	0	0	0	0	0	0	0	0	0
1.96667	0	0	0	0	0	0	0	0	0	-6.28587	18.3219	-2.36585	0.944502	0	-0.242621	-0.114707	0.334348	-0.0431732
1.975	0	0	0	0	0	0	0	0	0	-11.2103	43.59	-3.65206	0.94676	0	-0.262011	-0.0485115	0.188631	-0.0158039
1.98333	0	0	0	0	0	0	0	0	0	-11.5653	97.5376	-4.87745	0.936134	0	-0.270328	0.0411039	-0.346654	0.0173347
1.99167	0	0	0	0	0	0	0	0	0	-4.28062	198.062	-6.27566	0.922843	0	-0.274809	0.0292476	-1.35327	0.0428789
2	0	0	0	0	0	0	0	0	0	4.42517	355.82	-8.19157	0.912494	0	-0.27606	-0.0345289	-2.77641	0.0639176
2.00833	0	0	0	0	0	0	0	0	0	4.11882	553.487	-10.7241	0.907414	0	-0.27518	-0.0299411	-4.02348	0.0779571
2.01667	0	0	0	0	0	0	0	0	0	-10.6266	743.659	-14.0986	0.90583	0	-0.273547	0.0529055	-3.70236	0.070191
2.025	0	0	0	0	0	0	0	0	0	-37.1455	885.45	-18.7604	0.904652	0	-0.272458	0.0277895	-0.662427	0.0140351
2.03333	0	0	0	0	0	0	0	0	0	-64.6474	981.699	-23.9039	0.901295	0	-0.272748	-0.269995	4.09999	-0.099833
2.04167	0	0	0	0	0	0	0	0	0	-83.0254	1066.22	-26.2842	0.894717	0	-0.273844	-0.563991	7.2428	-0.178548
2.05	0	0	0	0	0	0	0	0	0	-90.7666	1161.95	-22.4272	0.886092	0	-0.274417	-0.463285	5.93073	-0.114472
2.05833	0	0	0	0	0	0	0	0	0	-89.803	1265.05	-12.6232	0.876621	0	-0.274476	-0.0707606	0.996801	-0.0099465
2.06667	0	0	0	0	0	0	0	0	0	-82.343	1358.69	-1.08375	0.866536	0	-0.27516	0.221391	-3.65303	0.00291382
2.075	0	0	0	0	0	0	0	0	0	-70.5982	1432.68	8.71062	0.855973	0	-0.276861	0.258133	-5.23839	-0.0318492
2.08333	0	0	0	0	0	0	0	0	0	-57.2546	1488.6	17.2776	0.84526	0	-0.278873	0.183823	-4.77932	-0.0554717
2.09167	0	0	0	0	0	0	0	0	0	-43.8947	1529.43	26.7281	0.83472	0	-0.280477	0.142622	-4.96941	-0.0868445
2.1	0	0	0	0	0	0	0	0	0	-29.9484	1553.04	36.6698	0.824315	0	-0.281731	0.124571	-6.45991	-0.152529
2.10833	0	0	0	0	0	0	0	0	0	-15.5905	1555.29	44.3926	0.813975	0	-0.283194	0.0754821	-7.53001	-0.214928
2.11667	0	0	0	0	0	0	0	0	0	-1.93618	1535.52	48.4948	0.803721	0	-0.28501	0.00877026	-6.95539	-0.219666
2.125	0	0	0	0	0	0	0	0	0	10.4424	1497.05	50.2424	0.793699	0	-0.28674	-0.0392801	-5.63129	-0.188991
2.13333	0	0	0	0	0	0	0	0	0	21.4821	1443.22	51.0424	0.784188	0	-0.28801	-0.0738676	-4.9626	-0.175513
2.14167	0	0	0	0	0	0	0	0	0	31.7679	1374.79	50.2389	0.775111	0	-0.288907	-0.111515	-4.82589	-0.176353
2.15	0	0	0	0	0	0	0	0	0	41.9104	1292.82	46.2826	0.76615	0	-0.289677	-0.13069	-4.03142	-0.144323
2.15833	0	0	0	0	0	0	0	0	0	53.0981	1201.92	39.1274	0.756999	0	-0.29023	-0.0999623	-2.26273	-0.073661
2.16667	0	0	0	0	0	0	0	0	0	66.2994	1107.52	30.411	0.747361	0	-0.290202	-0.033685	-0.562701	-0.015451
2.175	0	0	0	0	0	0	0	0	0	81.0218	1012.71	21.5553	0.737137	0	-0.289437	0.0116402	0.145494	0.0030968
2.18333	0	0	0	0	0	0	0	0	0	94.6623	917.602	12.66	0.726396	0	-0.288151	0.0244872	0.237365	0.00327488
2.19167	0	0	0	0	0	0	0	0	0	104.497	821.074	3.50064	0.715152	0	-0.286642	0.087003	0.683614	0.00291459
2.2	0	0	0	0	0	0	0	0	0	110.205	724.53	-5.10327	0.703451	0	-0.284925	0.247831	1.62934	-0.0114764
2.20833	0	0	0	0	0	0	0	0	0	112.104	631.414	-11.5451	0.691727	0	-0.282938	0.39743	2.23847	-0.0409292
2.21667	0	0	0	0	0	0	0	0	0	109.967	543.364	-14.8813	0.680379	0	-0.280887	0.375171	1.85377	-0.0507699
2.225	0	0	0	0	0	0	0	0	0	103.044	459.969	-15.536	0.669783	0	-0.279174	0.178847	0.79834	-0.0269649
2.23333	0	0	0	0	0	0	0	0	0	91.6086	381.077	-14.5076	0.660286	0	-0.278071	-0.0360373	-0.14991	0.00570706
2.24167	0	0	0	0	0	0	0	0	0	78.0127	307.86	-12.3018	0.651424	0	-0.277493	-0.18493	-0.729783	0.0291615
2.25	0	0	0	0	0	0	0	0	0	64.6457	242.148	-8.92671	0.64263	0	-0.277234	-0.353579	-1.32442	0.0488246
2.25833	0	0	0	0	0	0	0	0	0	52.8486	185.427	-4.69812	0.634357	0	-0.277245	-0.634176	-2.2251	0.0563768
2.26667	0	0	0	0	0	0	0	0	0	42.6202	137.985	-0.58921	0.628588	0	-0.277765	-0.960165	-3.10859	0.013274
2.275	0	0	0	0	0	0	0	0	0	33.6225	99.4875	2.39845	0.626924	0	-0.278264	-1.1524	-3.4099	-0.082206
2.28333	0	0	0	0	0	0	0	0	0	25.7512	70.0366	3.98566	0.629817	0	-0.275825	-1.11537	-3.03352	-0.172632
2.29167	0	0	0	0	0	0	0	0	0	18.5073	49.2344	4.5682	0.643075	0	-0.266757	-0.933899	-2.48442	-0.230516
2.3	0	0	0	0	0	0	0	0	0	11.9763	35.3015	4.62475	0.673426	0	-0.251569	-0.781143	-2.30251	-0.301645
2.30833	0	0	0	0	0	0	0	0	0	6.26238	25.5697	4.36258	0.717141	0	-0.232186	-0.635307	-2.594	-0.442576
2.31667	0	0	0	0	0	0	0	0	0	1.78348	17.9813	3.81548	0.762544	0	-0.200035	-0.290793	-2.93181	-0.622107
2.325	0	0	0	0	0	0	0	0	0	-0.617967	11.992	3.04584	-0.000890578	0	8.09739e-05	3.24504e-20	-6.29717e-19	-1.59942e-19
2.33333	0	0	0	0	0	0	0	0	0	0	0	0	0	0	0	0	0	0
2.34167	0	0	0	0	0	0	0	0	0	0	0	0	0	0	0	0	0	0
2.35	0	0	0	0	0	0	0	0	0	0	0	0	0	0	0	0	0	0
2.35833	-6.1189	17.6845	-0.233903	0.92441	0	-0.11041	1.05386	-3.0458	0.040285	0	0	0	0	0	0	0	0	0
2.36667	-10.9549	43.6826	-2.08482	0.94652	0	-0.175042	0.866483	-3.45509	0.164899	0	0	0	0	0	0	0	0	0
2.375	-12.6494	100.953	-5.29912	0.956299	0	-0.210622	0.175285	-1.39893	0.0734308	0	0	0	0	0	0	0	0	0
2.38333	-6.42692	210.013	-9.2127	0.953601	0	-0.224214	-0.0923157	3.01661	-0.13233	0	0	0	0	0	0	0	0	0
2.39167	4.36289	383.023	-11.4048	0.945772	0	-0.231058	0.0755566	6.63319	-0.197509	0	0	0	0	0	0	0	0	0
2.4	7.92137	599.191	-8.9431	0.939327	0	-0.235685	0.0776459	5.87332	-0.087661	0	0	0	0	0	0	0	0	0
2.40833	-5.70647	801.864	-1.45708	0.936226	0	-0.238254	-0.00241898	0.339912	-0.00061766	0	0	0	0	0	0	0	0	0
2.41667	-36.9636	945.4	7.143	0.935315	0	-0.239345	0.236446	-6.04747	-0.0456919	0	0	0	0	0	0	0	0	0
2.425	-76.7731	1037.57	11.4826	0.934157	0	-0.240094	0.629183	-8.50328	-0.094104	0	0	0	0	0	0	0	0	0
2.43333	-112.075	1116.87	9.84881	0.930803	0	-0.241246	0.619612	-6.17468	-0.0544496	0	0	0	0	0	0	0	0	0
2.44167	-132.13	1207.27	5.38538	0.924738	0	-0.242188	0.273843	-2.50208	-0.0111613	0	0	0	0	0	0	0	0	0
2.45	-136.072	1307.38	1.54982	0.916513	0	-0.242078	0.0806597	-0.774981	-0.000918691	0	0	0	0	0	0	0	0	0
2.45833	-129.513	1402.17	-2.0392	0.907065	0	-0.241378	0.0591377	-0.640252	0.000931132	0	0	0	0	0	0	0	0	0
2.46667	-116.23	1477.49	-7.70556	0.896898	0	-0.240952	-0.0254782	0.323873	-0.00168909	0	0	0	0	0	0	0	0	0
2.475	-101.45	1526.75	-15.0589	0.88657	0	-0.240866	-0.172273	2.59258	-0.0255715	0	0	0	0	0	0	0	0	0
2.48333	-88.6215	1551.53	-20.7289	0.876504	0	-0.240554	-0.227281	3.97909	-0.0531618	0	0	0	0	0	0	0	0	0
2.49167	-75.8695	1557.27	-22.7269	0.866344	0	-0.23974	-0.143069	2.93659	-0.0428567	0	0	0	0	0	0	0	0	0
2.5	-60.9065	1546.73	-22.8083	0.855717	0	-0.238814	-0.0331376	0.841535	-0.0124094	0	0	0	0	0	0	0	0	0
2.50833	-43.8422	1519.37	-23.5646	0.844855	0	-0.238209	-0.00250087	0.086669	-0.00134419	0	0	0	0	0	0	0	0	0
2.51667	-27.2762	1475.04	-24.7729	0.834215	0	-0.23788	-0.0172684	0.933836	-0.0156835	0	0	0	0	0	0	0	0	0
2.525	-12.7157	1416.71	-24.0196	0.823859	0	-0.237538	-0.0131803	1.46847	-0.0248972	0	0	0	0	0	0	0	0	0
2.53333	0.553233	1348.14	-20.1187	0.813727	0	-0.237152	0.000131582	0.320644	-0.00478506	0	0	0	0	0	0	0	0	0
2.54167	13.9917	1271	-14.3291	0.803642	0	-0.237026	-0.0195453	-1.77548	0.0200166	0	0	0	0	0	0	0	0	0
2.55	29.4737	1186.78	-8.23054	0.793068	0	-0.237366	-0.0825998	-3.32594	0.023066	0	0	0	0	0	0	0	0	0
2.55833	46.8946	1098.13	-1.86132	0.781689	0	-0.238024	-0.170741	-3.99822	0.00677696	0	0	0	0	0	0	0	0	0
2.56667	64.6317	1006.82	5.42324	0.769647	0	-0.238756	-0.294461	-4.58706	-0.0247082	0	0	0	0	0	0	0	0	0
2.575	79.9759	912.703	13.2245	0.757561	0	-0.239565	-0.491446	-5.6085	-0.0812636	0	0	0	0	0	0	0	0	0
2.58333	90.8392	815.927	20.1494	0.745789	0	-0.240551	-0.743863	-6.68146	-0.165	0	0	0	0	0	0	0	0	0
2.59167	96.9652	718.412	25.1619	0.734058	0	-0.241538	-0.97224	-7.2033	-0.25229	0	0	0	0	0	0	0	0	0
2.6	99.0283	623.474	28.1341	0.72194	0	-0.242147	-1.1175	-7.03569	-0.317484	0	0	0	0	0	0	0	0	0
2.60833	97.6521	534.344	29.2387	0.70938	0	-0.242082	-1.16761	-6.38909	-0.349603	0	0	0	0	0	0	0	0	0
2.61667	92.3441	451.683	28.4484	0.696965	0	-0.24125	-1.1111	-5.43471	-0.342295	0	0	0	0	0	0	0	0	0
2.625	82.9851	374.799	25.8243	0.685702	0	-0.239666	-0.948031	-4.28175	-0.29502	0	0	0	0	0	0	0	0	0
2.63333	71.1419	304.459	21.9162	0.676256	0	-0.237304	-0.73399	-3.14119	-0.226115	0	0	0	0	0	0	0	0	0
2.64167	58.9438	242.309	17.5186	0.66852	0	-0.233892	-0.544426	-2.23805	-0.161808	0	0	0	0	0	0	0	0	0
2.65	48.2217	188.77	13.1158	0.661683	0	-0.228914	-0.403883	-1.58105	-0.109852	0	0	0	0	0	0	0	0	0
2.65833	39.4347	143.052	8.85342	0.654847	0	-0.222068	-0.284549	-1.03222	-0.0638837	0	0	0	0	0	0	0	0	0
2.66667	32.1118	104.52	5.02299	0.648039	0	-0.213286	-0.190009	-0.618455	-0.0297216	0	0	0	0	0	0	0	0	0
2.675	25.6156	73.2878	2.1902	0.644505	0	-0.202781	-0.194044	-0.555172	-0.0165913	0	0	0	0	0	0	0	0	0
2.68333	19.7177	49.8235	0.668349	0.649364	0	-0.191987	-0.345889	-0.874009	-0.0117242	0	0	0	0	0	0	0	0	0
2.69167	14.5042	33.3313	0.128069	0.667757	0	-0.182833	-0.545545	-1.25368	-0.00481706	0	0	0	0	0	0	0	0	0
2.7	9.86587	21.6395	-0.0249779	0.701949	0	-0.176247	-0.627351	-1.37601	0.00158829	0	0	0	0	0	0	0	0	0
2.70833	5.77376	13.5032	-0.0205598	-0.000890759	0	8.10231e-05	-0	-0	0	0	0	0	0	0	0	0	0	0
2.71667	0	0	0	0	0	0	0	0	0	0	0	0	0	0	0	0	0	0
2.725	0	0	0	0	0	0	0	0	0	0	0	0	0	0	0	0	0	0
2.73333	0	0	0	0	0	0	0	0	0	0	0	0	0	0	0	0	0	0
2.74167	0	0	0	0	0	0	0	0	0	0	0	0	0	0	0	0	0	0
2.75	0	0	0	0	0	0	0	0	0	0	0	0	0	0	0	0	0	0
2.75833	0	0	0	0	0	0	0	0	0	-2.94374	16.0287	-1.06969	0.955032	0	-0.231764	0.111563	-0.607461	0.0405394
2.76667	0	0	0	0	0	0	0	0	0	-4.17615	43.4424	-2.47863	0.960045	0	-0.276213	-0.0551826	0.574037	-0.032752
2.775	0	0	0	0	0	0	0	0	0	-2.97281	105.965	-4.09343	0.958444	0	-0.289516	-0.038458	1.37083	-0.0529549
2.78333	0	0	0	0	0	0	0	0	0	1.33184	223.932	-5.55823	0.952318	0	-0.295226	0.00323651	0.544176	-0.013507
2.79167	0	0	0	0	0	0	0	0	0	1.88488	409.712	-6.36873	0.948178	0	-0.296362	-0.0116289	-2.52776	0.0392925
2.8	0	0	0	0	0	0	0	0	0	-9.6667	641.927	-7.07608	0.946959	0	-0.294678	0.0924963	-6.14231	0.0677078
2.80833	0	0	0	0	0	0	0	0	0	-35.3045	859.611	-9.86453	0.946907	0	-0.292396	0.267034	-6.50187	0.0746127
2.81667	0	0	0	0	0	0	0	0	0	-70.1113	1011.84	-16.5165	0.946308	0	-0.291345	0.0835149	-1.20528	0.0196741
2.825	0	0	0	0	0	0	0	0	0	-102.952	1104.59	-24.8295	0.943653	0	-0.292266	-0.661831	7.10094	-0.159617
2.83333	0	0	0	0	0	0	0	0	0	-126.135	1181.11	-28.381	0.938292	0	-0.293826	-1.27739	11.9612	-0.287419
2.84167	0	0	0	0	0	0	0	0	0	-139.516	1271.61	-22.1515	0.931099	0	-0.294151	-1.01062	9.21124	-0.16046
2.85	0	0	0	0	0	0	0	0	0	-142.788	1372.9	-8.24784	0.922685	0	-0.293614	-0.149027	1.43289	-0.00860826
2.85833	0	0	0	0	0	0	0	0	0	-136.172	1463.13	6.1407	0.912977	0	-0.293963	0.444056	-4.77126	-0.0200248
2.86667	0	0	0	0	0	0	0	0	0	-122.672	1528.87	16.6718	0.902228	0	-0.295655	0.475536	-5.92663	-0.0646277
2.875	0	0	0	0	0	0	0	0	0	-106.97	1572.59	25.3701	0.89121	0	-0.297623	0.314759	-4.62734	-0.0746515
2.88333	0	0	0	0	0	0	0	0	0	-91.9868	1598.19	35.5612	0.880608	0	-0.298914	0.287188	-4.98963	-0.111024
2.89167	0	0	0	0	0	0	0	0	0	-76.7108	1603.08	46.0405	0.87029	0	-0.299788	0.344511	-7.19948	-0.206769
2.9	0	0	0	0	0	0	0	0	0	-60.4097	1583.57	52.6656	0.859914	0	-0.301126	0.31494	-8.25578	-0.274566
2.90833	0	0	0	0	0	0	0	0	0	-43.6683	1541.81	54.2919	0.849465	0	-0.30302	0.194947	-6.88308	-0.242374
2.91667	0	0	0	0	0	0	0	0	0	-27.7669	1484.74	53.9389	0.83928	0	-0.304636	0.0972318	-5.19912	-0.188879
2.925	0	0	0	0	0	0	0	0	0	-13.5717	1416.72	53.8645	0.829614	0	-0.305417	0.0501955	-5.23983	-0.19922
2.93333	0	0	0	0	0	0	0	0	0	-0.0350453	1337.37	52.2994	0.820282	0	-0.305771	0.000156455	-5.97053	-0.233484
2.94167	0	0	0	0	0	0	0	0	0	13.5953	1246.29	46.4643	0.810951	0	-0.306377	-0.0553771	-5.07647	-0.189261
2.95	0	0	0	0	0	0	0	0	0	27.7743	1147.83	36.9406	0.801338	0	-0.307103	-0.0597546	-2.46948	-0.0794753
2.95833	0	0	0	0	0	0	0	0	0	42.8865	1049.03	27.0003	0.79125	0	-0.307125	-0.0120491	-0.294727	-0.0075858
2.96667	0	0	0	0	0	0	0	0	0	58.7442	952.81	18.414	0.780511	0	-0.306101	0.0130281	0.211312	0.00408382
2.975	0	0	0	0	0	0	0	0	0	73.3209	856.089	10.0738	0.769149	0	-0.304712	0.0168402	0.196624	0.00231372
2.98333	0	0	0	0	0	0	0	0	0	83.6515	756.825	0.956791	0.757688	0	-0.303675	0.120231	1.08778	0.00137518
2.99167	0	0	0	0	0	0	0	0	0	89.1389	658.932	-7.38567	0.746511	0	-0.302749	0.314625	2.32577	-0.0260685
